<svg xmlns="http://www.w3.org/2000/svg" width="22.094" height="25.53" viewBox="0 0 22.094 25.53">
  <defs>
    <style>
      .cls-1 {
        fill: #fff;
        fill-rule: evenodd;
      }
    </style>
  </defs>
  <path id="restaurant_icon" data-name="restaurant icon" class="cls-1" d="M47.4,2169.3c-2.151,0-3.659,3.69-3.659,5.69,0,1.86,1.361,4.06,3.137,4.43v14.37a0.523,0.523,0,1,0,1.045,0v-14.37c1.776-.37,3.137-2.57,3.137-4.43C51.058,2172.99,49.55,2169.3,47.4,2169.3Zm0,9.13c-1.383,0-2.614-1.92-2.614-3.44,0-1.65,1.318-4.62,2.614-4.62s2.614,2.97,2.614,4.62C50.013,2176.51,48.782,2178.43,47.4,2178.43Zm17.641-7.05c-0.045-.63-0.18-2.57-1.931-2.57a1.235,1.235,0,0,0-.938.36,2.9,2.9,0,0,0-.554,1.94,0.555,0.555,0,0,0-.03.15v0.47c-0.034,1.01-.027,2.39-0.015,4.34,0.007,1.21.015,2.62,0.015,4.28v13.44a0.523,0.523,0,1,0,1.045,0v-11.34a2.31,2.31,0,0,0,1.154.28h0.072a2.454,2.454,0,0,0,1.31-.25,1.707,1.707,0,0,0,.671-1.61Zm-0.417,10.19a1.752,1.752,0,0,1-.764.1H63.714a1.068,1.068,0,0,1-1.082-1.32v-8.59a3.944,3.944,0,0,1,.28-1.84,0.358,0.358,0,0,1,.2-0.04c0.291,0,.779,0,0.889,1.58l0.8,9.46A0.858,0.858,0,0,1,64.623,2181.57ZM58.19,2169.3a0.53,0.53,0,0,0-.523.54v4.24H56.359v-4.24a0.523,0.523,0,1,0-1.045,0v4.24H54.006v-4.24a0.523,0.523,0,1,0-1.045,0v6.17a2.818,2.818,0,0,0,2.353,2.8v14.99a0.523,0.523,0,1,0,1.045,0v-14.99a2.818,2.818,0,0,0,2.353-2.8v-6.17A0.53,0.53,0,0,0,58.19,2169.3Zm-0.523,6.71a1.764,1.764,0,0,1-1.74,1.78h-0.18a1.764,1.764,0,0,1-1.741-1.78v-0.86h3.661v0.86Z" transform="translate(-43.75 -2168.81)"/>
</svg>
