<svg xmlns="http://www.w3.org/2000/svg" width="22.125" height="20.75" viewBox="0 0 22.125 20.75">
  <defs>
    <style>
      .cls-1 {
        fill: #fff;
        fill-rule: evenodd;
      }
    </style>
  </defs>
  <path id="retail_icon" data-name="retail icon" class="cls-1" d="M50.614,2610.25a0.445,0.445,0,0,0,.348-0.16l3.012-3.5a1.5,1.5,0,0,0,1.5,0l3.014,3.5a0.444,0.444,0,0,0,.348.16,0.452,0.452,0,0,0,.305-0.12,0.472,0.472,0,0,0,.042-0.66l-3.061-3.56a1.619,1.619,0,0,0,.174-0.71,1.57,1.57,0,1,0-3.14,0,1.619,1.619,0,0,0,.174.71l-3.061,3.56a0.472,0.472,0,0,0,.042.66A0.452,0.452,0,0,0,50.614,2610.25Zm4.109-5.7a0.65,0.65,0,1,1-.645.65A0.647,0.647,0,0,1,54.723,2604.55Zm5.571,13.19H49.589a0.47,0.47,0,0,0,0,.94H60.294A0.47,0.47,0,0,0,60.294,2617.74Zm0.667-2.82H48.921a0.475,0.475,0,0,0-.462.48,0.466,0.466,0,0,0,.462.47h12.04a0.466,0.466,0,0,0,.463-0.47A0.475,0.475,0,0,0,60.962,2614.92Zm-1.335,5.63h-9.37a0.466,0.466,0,0,0-.463.47,0.475,0.475,0,0,0,.463.48h9.37a0.475,0.475,0,0,0,.462-0.48A0.466,0.466,0,0,0,59.627,2620.55Zm3.994-9.08H45.954a2.242,2.242,0,0,0-2.224,2.26v0.59a2.236,2.236,0,0,0,1.286,2.04c0.259,0.92.48,1.74,0.675,2.46,1.114,4.13,1.489,5.52,3.794,5.52h10.6c2.321,0,2.689-1.37,3.782-5.46,0.2-.73.423-1.57,0.689-2.52a2.236,2.236,0,0,0,1.286-2.04v-0.59A2.242,2.242,0,0,0,63.621,2611.47Zm1.3,2.85a1.3,1.3,0,0,1-.884,1.24,0.442,0.442,0,0,0-.3.31c-0.3,1.05-.541,1.97-0.755,2.77-1.095,4.08-1.321,4.76-2.89,4.76h-10.6c-1.556,0-1.787-.69-2.9-4.83-0.211-.78-0.452-1.68-0.741-2.7a0.442,0.442,0,0,0-.3-0.31,1.3,1.3,0,0,1-.884-1.24v-0.59a1.31,1.31,0,0,1,1.3-1.32H63.621a1.31,1.31,0,0,1,1.3,1.32v0.59Z" transform="translate(-43.719 -2603.59)"/>
</svg>
