<svg xmlns="http://www.w3.org/2000/svg" width="26.812" height="19.12" viewBox="0 0 26.812 19.12">
  <defs>
    <style>
      .cls-1 {
        fill: #fff;
        fill-rule: evenodd;
      }
    </style>
  </defs>
  <path id="tech_icon" data-name="tech icon" class="cls-1" d="M43.357,3340.1a0.559,0.559,0,0,0,.559-0.56v-12.72a0.227,0.227,0,0,1,.238-0.23H63.846a0.208,0.208,0,0,1,.208.23v12.72a0.559,0.559,0,1,0,1.119,0v-12.72a1.323,1.323,0,0,0-1.327-1.35H44.155a1.337,1.337,0,0,0-1.357,1.35v12.72A0.559,0.559,0,0,0,43.357,3340.1Zm23.5,1.13H55.386a0.559,0.559,0,0,0-.559.56l0.073,0.27-1.726.07v-0.34a0.559,0.559,0,0,0-.559-0.56H41.139a0.559,0.559,0,0,0-.559.56v1.35a1.455,1.455,0,0,0,1.454,1.46H65.966a1.456,1.456,0,0,0,1.455-1.46v-1.35A0.559,0.559,0,0,0,66.861,3341.23Zm-0.559,1.91a0.337,0.337,0,0,1-.337.34H42.034a0.336,0.336,0,0,1-.335-0.34v-0.78h10.38a1.044,1.044,0,0,0,1.023.82h1.8a1.044,1.044,0,0,0,1.023-.82H66.3v0.78Zm-7.788-10.64-0.317.89-0.323-.89a0.562,0.562,0,0,0-.526-0.37h0a0.56,0.56,0,0,0-.525.37l-0.317.89-0.323-.89a0.553,0.553,0,0,0-.717-0.33,0.54,0.54,0,0,0-.354.44,0.553,0.553,0,0,0-1.072-.11l-0.317.89-0.323-.89a0.562,0.562,0,0,0-.526-0.37h0a0.56,0.56,0,0,0-.525.37l-0.317.89-0.323-.89a0.553,0.553,0,0,0-.717-0.33,0.539,0.539,0,0,0-.354.44,0.553,0.553,0,0,0-1.072-.11l-0.317.89-0.323-.89a0.562,0.562,0,0,0-.525-0.37h0a0.56,0.56,0,0,0-.525.37l-0.317.89-0.323-.89a0.559,0.559,0,0,0-1.051.38l0.853,2.36a0.562,0.562,0,0,0,.525.37h0a0.56,0.56,0,0,0,.525-0.37l0.317-.89,0.323,0.89a0.562,0.562,0,0,0,.526.37h0a0.56,0.56,0,0,0,.525-0.37l0.84-2.36a0.484,0.484,0,0,0,.019-0.13,0.46,0.46,0,0,0,.02.13l0.853,2.36a0.562,0.562,0,0,0,.526.37h0a0.56,0.56,0,0,0,.525-0.37l0.317-.89,0.323,0.89a0.562,0.562,0,0,0,.526.37h0a0.56,0.56,0,0,0,.525-0.37l0.84-2.36a0.5,0.5,0,0,0,.019-0.13,0.475,0.475,0,0,0,.02.13l0.853,2.36a0.562,0.562,0,0,0,.526.37h0a0.56,0.56,0,0,0,.525-0.37l0.317-.89,0.323,0.89a0.562,0.562,0,0,0,.526.37h0a0.56,0.56,0,0,0,.525-0.37l0.84-2.36A0.56,0.56,0,1,0,58.514,3332.5Zm1.266,2.15a0.58,0.58,0,0,0-.168.4,0.6,0.6,0,0,0,.168.4,0.573,0.573,0,0,0,.795,0,0.588,0.588,0,0,0,.156-0.4A0.559,0.559,0,0,0,59.78,3334.65Z" transform="translate(-40.594 -3325.47)"/>
</svg>
