<svg xmlns="http://www.w3.org/2000/svg" width="22.125" height="23.94" viewBox="0 0 22.125 23.94">
  <defs>
    <style>
      .cls-1 {
        fill: #fff;
        fill-rule: evenodd;
      }
    </style>
  </defs>
  <path id="travel_icon" data-name="travel icon" class="cls-1" d="M60.836,3693.08l-0.064-.01c-1.653-1.89-2.957-3.39-4-4.59-3.981-4.6-4.219-4.88-5.252-4.88H50.505a0.522,0.522,0,0,0-.43.23,0.492,0.492,0,0,0-.032.48l4.33,9.03-5.453.4-2.35-2.57a0.5,0.5,0,0,0-.38-0.17H44.24a0.511,0.511,0,0,0-.448.26,0.49,0.49,0,0,0,.021.51l2.407,3.6-2.415,3.96a0.487,0.487,0,0,0,0,.5,0.5,0.5,0,0,0,.443.25h1.947a0.531,0.531,0,0,0,.38-0.16l2.349-2.57,5.456,0.4-4.332,9.08a0.494,0.494,0,0,0,.032.48,0.522,0.522,0,0,0,.43.23h1.016c1.033,0,1.27-.28,5.24-4.86,1.042-1.21,2.35-2.72,4.01-4.62h0.115c1.733-.11,4.96-0.31,4.961-2.49C65.846,3693.41,62.709,3693.2,60.836,3693.08Zm-0.014,3.98-0.335.02a0.506,0.506,0,0,0-.358.19c-1.724,1.97-3.075,3.53-4.145,4.76-3.572,4.13-3.917,4.51-4.461,4.51H51.306l4.307-9.02a0.5,0.5,0,0,0-.424-0.71l-6.443-.47a0.512,0.512,0,0,0-.418.17l-2.364,2.58H45.139l2.119-3.48a0.493,0.493,0,0,0-.011-0.53L45.182,3692h0.78l2.365,2.58a0.51,0.51,0,0,0,.418.17l6.442-.47a0.5,0.5,0,0,0,.424-0.71l-4.3-8.97h0.215c0.546,0,.892.38,4.474,4.52,1.07,1.23,2.42,2.79,4.139,4.76a0.518,0.518,0,0,0,.351.17l0.281,0.02c1.418,0.09,4.059.27,4.06,1.5S62.122,3696.98,60.822,3697.06Z" transform="translate(-43.719 -3683.59)"/>
</svg>
