<svg xmlns="http://www.w3.org/2000/svg" width="55" height="55" viewBox="0 0 55 55"><defs><style>.a{fill:#0ab45b;}</style></defs><path class="a" d="M517.71,153.141a27.5,27.5,0,1,0,27.5,27.5A27.5,27.5,0,0,0,517.71,153.141Zm0,53.282a25.781,25.781,0,1,1,25.781-25.782A25.782,25.782,0,0,1,517.71,206.423Zm-.309-30.182a5.534,5.534,0,1,0-5.422-5.645c0,.037,0,.074,0,.111A5.491,5.491,0,0,0,517.4,176.241Zm0-9.35a3.816,3.816,0,1,1-3.7,3.926c0-.036,0-.074,0-.11A3.774,3.774,0,0,1,517.4,166.891Zm.145,11.7a6.754,6.754,0,0,0-5.672,2.578c-2.759,3.583-2.827,9.857-2.759,12.186a14.227,14.227,0,0,0,8.285,2.759,16.1,16.1,0,0,0,8.9-2.862c0-2.38-.172-8.525-3.016-12.031A6.917,6.917,0,0,0,517.546,178.587Zm-.145,15.8a12.528,12.528,0,0,1-6.566-1.959c0-2.407.214-7.408,2.4-10.184a5.071,5.071,0,0,1,4.3-1.943,5.228,5.228,0,0,1,4.4,1.977c2.216,2.741,2.578,7.632,2.629,10.029A14.2,14.2,0,0,1,517.4,194.391Z" transform="translate(-490.21 -153.141)"/></svg>