<svg xmlns="http://www.w3.org/2000/svg" width="55" height="55" viewBox="0 0 55 55"><defs><style>.a{fill:#0ab45b;}</style></defs><path class="a" d="M250.387,152.462a27.5,27.5,0,1,0,27.5,27.5A27.5,27.5,0,0,0,250.387,152.462Zm0,53.281a25.781,25.781,0,1,1,25.782-25.781A25.781,25.781,0,0,1,250.387,205.743Zm-9.041-30.55a5.354,5.354,0,1,0-5.439-5.345A5.354,5.354,0,0,0,241.346,175.192Zm0-8.98a3.635,3.635,0,1,1-3.72,3.635A3.686,3.686,0,0,1,241.346,166.212Zm18.048,8.98a5.445,5.445,0,1,1,.008,0h-.008Zm0-8.98a3.635,3.635,0,1,1-3.721,3.635,3.685,3.685,0,0,1,3.737-3.635h-.015Zm.507,11.12h-.98a6.121,6.121,0,0,0-4.7,2.252,11.984,11.984,0,0,0-2.113,4.366h-3.437a11.967,11.967,0,0,0-2.089-4.366,6.119,6.119,0,0,0-4.7-2.252h-1.041a6.1,6.1,0,0,0-4.7,2.252c-2.827,3.438-3.077,9.943-2.9,11.834a14.743,14.743,0,0,0,7.829,2.295h.542a14.724,14.724,0,0,0,7.829-2.295,22.969,22.969,0,0,0-.4-5.75h2.682a22.97,22.97,0,0,0-.4,5.75,14.725,14.725,0,0,0,7.83,2.295h.541a14.747,14.747,0,0,0,7.872-2.295c.18-1.891-.068-8.379-2.9-11.834a6.106,6.106,0,0,0-4.743-2.252Zm-12.092,13.105a13.645,13.645,0,0,1-6.17,1.555h-.559a13.67,13.67,0,0,1-6.161-1.555c0-2.329.463-7.218,2.577-9.762a4.411,4.411,0,0,1,3.378-1.624h1.014a4.391,4.391,0,0,1,3.343,1.616,9.877,9.877,0,0,1,1.632,3.282H241.88l1.572-1.547-1.211-1.221-3.609,3.55,3.755,3.7,1.211-1.229-1.572-1.539h5.268A23.889,23.889,0,0,1,247.809,190.437Zm11.911,1.555h-.55a13.686,13.686,0,0,1-6.2-1.555,23.872,23.872,0,0,1,.481-4.77h5.414l-1.572,1.539,1.211,1.229,3.609-3.557-3.755-3.7-1.177,1.221,1.573,1.547h-4.83a9.729,9.729,0,0,1,1.625-3.275,4.407,4.407,0,0,1,3.377-1.624h1.014a4.391,4.391,0,0,1,3.343,1.616c2.088,2.577,2.578,7.441,2.578,9.77A13.655,13.655,0,0,1,259.719,191.993Z" transform="translate(-222.887 -152.462)"/></svg>