<svg xmlns="http://www.w3.org/2000/svg" width="55" height="55" viewBox="0 0 55 55"><defs><style>.a{fill:#0ab45b;}</style></defs><path class="a" d="M520.387,393.462a27.5,27.5,0,1,0,27.5,27.5A27.5,27.5,0,0,0,520.387,393.462Zm0,53.281a25.781,25.781,0,1,1,25.782-25.781A25.781,25.781,0,0,1,520.387,446.743Zm17.78-28.857,2.845-.859-21.484-6.377-21.484,6.393,6.875,2.046v6.875l14.609,4.77,14.609-4.77v-6.875l2.3-.687v9.625l-1.152,1.134,2.011,1.977,1.994-1.977-1.152-1.134Zm-5.749,6.789-12.891,4.2-12.891-4.2V419.6l12.891,3.841,12.891-3.841Zm-12.891-3.034-15.469-4.6,15.469-4.6,15.468,4.6Z" transform="translate(-492.887 -393.462)"/></svg>