<svg xmlns="http://www.w3.org/2000/svg" width="55" height="55" viewBox="0 0 55 55"><defs><style>.a{fill:#0ab45b;}</style></defs><path class="a" d="M798.1,153.492a27.5,27.5,0,1,0,27.5,27.5A27.5,27.5,0,0,0,798.1,153.492Zm0,53.281a25.781,25.781,0,1,1,25.782-25.781A25.781,25.781,0,0,1,798.1,206.773Zm18.136-35.784c-2.132.823-4.92.114-7.617-.572-2.286-.58-4.649-1.18-6.691-.867-.078.012-.184.033-.308.063-3.349-.97-4.706-.59-8.35.726a15.527,15.527,0,0,1-10.467.4l-.563-.213-6.352,14.444.733.182a9.21,9.21,0,0,1,2.951,1.434,2.826,2.826,0,0,0,2.218,4.421,2.844,2.844,0,0,0,.683-.058,6.62,6.62,0,0,1,5.325,3.9,2.8,2.8,0,0,0,1.7.661,1.453,1.453,0,0,1,2.609.987,2.833,2.833,0,0,0,3.984-.34l.634-.752a15.605,15.605,0,0,0,5.066,1.47,2.746,2.746,0,0,0,1.846-.464,1.8,1.8,0,0,0,.66-1.1,3.354,3.354,0,0,0,.65.1,3.045,3.045,0,0,0,2.743-1.462A2.276,2.276,0,0,0,808,192.9c.1.013.2.022.3.025a3.33,3.33,0,0,0,2.653-1.135,2.593,2.593,0,0,0,.637-1.446,2.7,2.7,0,0,0,.689.115,3,3,0,0,0,1.718-.472,2.933,2.933,0,0,0,1.35-2.737c.1.008.2.014.3.018a6.528,6.528,0,0,0,3.141-.708c.3-.124.637-.265,1.019-.41l.516-.195-3.391-15.227Zm-33.142,18.2a1.557,1.557,0,0,1-2.38-2.006l1.939-2.3a1.56,1.56,0,0,1,1.254-.552,1.558,1.558,0,0,1,1.126,2.557Zm3.391,2.824A1.557,1.557,0,0,1,784.1,190l4.124-4.892a1.557,1.557,0,0,1,2.38,2.006Zm5.283.5a2.719,2.719,0,0,0-.215.295l-.745.883h0a1.556,1.556,0,0,1-2.38-2.005l3.088-3.663a1.555,1.555,0,0,1,2.5,1.835c-.045.047-.092.095-.135.146Zm5.467.316-2.115,2.51a1.556,1.556,0,0,1-2.539-1.779l2.287-2.713c.047-.056.09-.116.133-.175a1.552,1.552,0,0,1,2.524.68l0,.008A1.555,1.555,0,0,1,797.235,192.826Zm5.621,2.579c-.306.238-1.421.583-5.276-1.018l.626-.744a2.8,2.8,0,0,0,.622-1.345l4.245,2.391A.8.8,0,0,1,802.856,195.405Zm10.453-6.494a1.59,1.59,0,0,1-1.676.065c-1.374-.879-8.263-5.249-8.333-5.293a.635.635,0,1,0-.681,1.072c.053.034,4.069,2.581,6.581,4.179l.988.628a1.211,1.211,0,0,1-.2,1.4,2.106,2.106,0,0,1-2.349.54l-.411-.255,0,0-6.887-4.262a.635.635,0,1,0-.669,1.08l6.822,4.222a.817.817,0,0,1,.1,1.036,1.791,1.791,0,0,1-2.021.757l-5.91-3.33a2.819,2.819,0,0,0-3.125-1.7c0-.087,0-.174-.01-.261a2.818,2.818,0,0,0-3.281-2.545,2.824,2.824,0,0,0-4.982-1.945l-.7.824a2.8,2.8,0,0,0-.9-1.4,2.831,2.831,0,0,0-3.984.339l-1.3,1.542a11.477,11.477,0,0,0-2.74-1.47l5.281-12.008a17.182,17.182,0,0,0,10.778-.591c2.7-.975,3.969-1.345,5.579-1.146-1.962.791-4.379,2.1-5.271,3.815a6.32,6.32,0,0,0-.961,2.9,4.76,4.76,0,0,1-.146.947c-.523,1.042-1.309,2.841-.981,3.669.283.712,1.657,1.186,2.941,1.013,1.041-.14,2.66-.777,3.629-3.225a15.916,15.916,0,0,0,3.565-1.54c3.374,1.572,10.527,6.624,11.805,8.74a.661.661,0,0,0,.1.175,1.049,1.049,0,0,1,.1.3A1.694,1.694,0,0,1,813.31,188.911Zm4.982-3.528a5.272,5.272,0,0,1-3.478.524c-2.087-3.037-9.96-8.121-12.556-9.241a.631.631,0,0,0-.618.067h0a16,16,0,0,1-2.7,1.316,13.974,13.974,0,0,0,.255-1.539.635.635,0,1,0-1.263-.14c-.306,2.752-1.242,4.475-2.71,4.982a2.662,2.662,0,0,1-2.11-.146,9.106,9.106,0,0,1,.961-2.638l.029-.058.017-.062a5.962,5.962,0,0,0,.2-1.245,5.228,5.228,0,0,1,.821-2.411c1.14-2.185,5.891-3.817,6.984-3.985,1.788-.274,3.924.268,6.186.844,2.626.668,5.334,1.355,7.689.749l2.841,12.761C818.64,185.237,818.46,185.313,818.292,185.383Z" transform="translate(-770.6 -153.492)"/></svg>