<svg xmlns="http://www.w3.org/2000/svg" width="55" height="55" viewBox="0 0 55 55"><defs><style>.a{fill:#0ab45b;}</style></defs><path class="a" d="M246.548,395.141a27.5,27.5,0,1,0,27.5,27.5A27.5,27.5,0,0,0,246.548,395.141Zm0,53.282a25.781,25.781,0,1,1,25.782-25.782A25.782,25.782,0,0,1,246.548,448.423Zm11.172-33.766,6.385,3.086-.757,1.547-3.506-1.718a16.981,16.981,0,0,1,.568,2.131,13.751,13.751,0,0,1-10.8,16.036,13.43,13.43,0,0,1-2.484.232,13.239,13.239,0,0,1-7.519-2.354,13.837,13.837,0,0,1,5.1-24.923,13.245,13.245,0,0,1,7.864.928l-.705,1.564a11.481,11.481,0,0,0-6.823-.791,12.118,12.118,0,0,0-4.443,21.8,11.5,11.5,0,0,0,8.714,1.856,12.031,12.031,0,0,0,9.418-13.991,16.484,16.484,0,0,0-.636-2.286l-2.209,4.357-1.529-.782Zm-10.192,2.269v6.307l3.24,3.309-1.229,1.2-3.73-3.807v-7.013Z" transform="translate(-219.048 -395.141)"/></svg>