<svg xmlns="http://www.w3.org/2000/svg" width="30" height="23.94" viewBox="0 0 30 23.94">
  <defs>
    <style>
      .cls-1 {
        fill: #fff;
        fill-rule: evenodd;
      }
    </style>
  </defs>
  <path id="entertainment_icon" data-name="entertainment icon" class="cls-1" d="M48.827,1820.94a1.819,1.819,0,1,0,1.818-1.79A1.8,1.8,0,0,0,48.827,1820.94Zm2.371,0a0.552,0.552,0,1,1-.552-0.54A0.545,0.545,0,0,1,51.2,1820.94Zm5.516,3.23a3.23,3.23,0,1,0-3.279-3.23A3.259,3.259,0,0,0,56.714,1824.17Zm0-5.21a1.98,1.98,0,1,1-2.012,1.98A2,2,0,0,1,56.714,1818.96Zm-12.139-1.25a3.23,3.23,0,1,0,3.279,3.23A3.259,3.259,0,0,0,44.575,1817.71Zm0,5.21a1.98,1.98,0,1,1,2.012-1.98A2,2,0,0,1,44.575,1822.92Zm6.069,0.77a3.225,3.225,0,1,0,3.279,3.23A3.253,3.253,0,0,0,50.644,1823.69Zm0,5.21a1.985,1.985,0,1,1,2.012-1.98A2,2,0,0,1,50.644,1828.9Zm0-10.71a3.225,3.225,0,1,0-3.279-3.23A3.252,3.252,0,0,0,50.644,1818.19Zm0-5.21a1.985,1.985,0,1,1-2.012,1.98A2,2,0,0,1,50.644,1812.98Zm16.812,16.26c-1.992-1.37-5.577-.93-8.576-0.19a11.362,11.362,0,0,0,3.416-8.11,11.652,11.652,0,1,0-11.651,11.47,11.975,11.975,0,0,0,3.614-.57,0.1,0.1,0,0,1,.054-0.01c0.07-.03.157-0.07,0.233-0.1,0.262-.09.523-0.18,0.776-0.29,3.086-1.14,9.048-2.81,11.407-1.18a2.613,2.613,0,0,1,1.014,2.49,0.617,0.617,0,0,0,.6.65h0.031a0.621,0.621,0,0,0,.633-0.59A3.793,3.793,0,0,0,67.456,1829.24Zm-27.193-8.3a10.384,10.384,0,1,1,14.553,9.35c-0.341.13-.61,0.23-0.78,0.3a10.56,10.56,0,0,1-3.391.57A10.311,10.311,0,0,1,40.263,1820.94Z" transform="translate(-39 -1809.47)"/>
</svg>
