<svg xmlns="http://www.w3.org/2000/svg" width="28.406" height="15.94" viewBox="0 0 28.406 15.94">
  <defs>
    <style>
      .cls-1 {
        fill: #fff;
        fill-rule: evenodd;
      }
    </style>
  </defs>
  <path id="health_fitness_icon" data-name="health &amp; fitness icon" class="cls-1" d="M45.1,1957.99h-0.76a1.425,1.425,0,0,0-1.4,1.45v1.05a1.492,1.492,0,0,0-.212-0.04h-0.76a1.423,1.423,0,0,0-1.4,1.44v8.16a1.423,1.423,0,0,0,1.4,1.44h0.76a1.492,1.492,0,0,0,.212-0.04v1.05a1.425,1.425,0,0,0,1.4,1.45H45.1a1.425,1.425,0,0,0,1.4-1.45v-13.06A1.425,1.425,0,0,0,45.1,1957.99Zm-2.368,12.28h-0.76a0.218,0.218,0,0,1-.213-0.22v-8.16a0.218,0.218,0,0,1,.213-0.22h0.76a0.217,0.217,0,0,1,.212.22v8.16A0.217,0.217,0,0,1,42.736,1970.27Zm2.58,2.23a0.217,0.217,0,0,1-.212.22h-0.76a0.218,0.218,0,0,1-.213-0.22v-13.06a0.218,0.218,0,0,1,.213-0.22H45.1a0.217,0.217,0,0,1,.212.22v13.06ZM67.6,1960.45h-0.76a1.493,1.493,0,0,0-.212.04v-1.05a1.425,1.425,0,0,0-1.4-1.45h-0.76a1.425,1.425,0,0,0-1.4,1.45v13.06a1.425,1.425,0,0,0,1.4,1.45h0.76a1.425,1.425,0,0,0,1.4-1.45v-1.05a1.493,1.493,0,0,0,.212.04H67.6a1.423,1.423,0,0,0,1.4-1.44v-8.16A1.417,1.417,0,0,0,67.6,1960.45Zm-2.156,12.05a0.218,0.218,0,0,1-.213.22h-0.76a0.217,0.217,0,0,1-.212-0.22v-13.06a0.217,0.217,0,0,1,.212-0.22h0.76a0.218,0.218,0,0,1,.213.22v13.06Zm2.368-2.45a0.218,0.218,0,0,1-.213.22h-0.76a0.217,0.217,0,0,1-.212-0.22v-8.16a0.217,0.217,0,0,1,.212-0.22H67.6a0.218,0.218,0,0,1,.213.22v8.16Zm-6.513-4.69H48.277a0.61,0.61,0,0,0,0,1.22H61.3A0.61,0.61,0,0,0,61.3,1965.36Z" transform="translate(-40.594 -1958)"/>
</svg>
